<?xml version="1.0" encoding="utf-8"?>
<!-- Pico palette as a 16x16 grid. Each cell shows the palette index. -->
<svg xmlns="http://www.w3.org/2000/svg" width="768" height="576" viewBox="0 0 768 576" role="img" aria-label="Colour Palette for Pico Logo">
  <style>
    .cell { width:48px; height:36px; }
    .idx { font-family: monospace, monospace; font-size:12px; font-weight:700; paint-order: stroke; stroke-width:1.5px; stroke: #ffffff; fill: #000000; }
  </style>
  <!-- 16 columns x 16 rows (index 0..255). Cell size: 48x36 -->
  <!-- Row 0: indices 0..15 -->
  <rect x="0"    y="0"   width="48" height="36" fill="#000000"/><text x="24"  y="22" class="idx">0</text>
  <rect x="48"   y="0"   width="48" height="36" fill="#111111"/><text x="72"  y="22" class="idx">1</text>
  <rect x="96"   y="0"   width="48" height="36" fill="#222222"/><text x="120" y="22" class="idx">2</text>
  <rect x="144"  y="0"   width="48" height="36" fill="#333333"/><text x="168" y="22" class="idx">3</text>
  <rect x="192"  y="0"   width="48" height="36" fill="#444444"/><text x="216" y="22" class="idx">4</text>
  <rect x="240"  y="0"   width="48" height="36" fill="#555555"/><text x="264" y="22" class="idx">5</text>
  <rect x="288"  y="0"   width="48" height="36" fill="#666666"/><text x="312" y="22" class="idx">6</text>
  <rect x="336"  y="0"   width="48" height="36" fill="#777777"/><text x="360" y="22" class="idx">7</text>
  <rect x="384"  y="0"   width="48" height="36" fill="#888888"/><text x="408" y="22" class="idx">8</text>
  <rect x="432"  y="0"   width="48" height="36" fill="#999999"/><text x="456" y="22" class="idx">9</text>
  <rect x="480"  y="0"   width="48" height="36" fill="#aaaaaa"/><text x="504" y="22" class="idx">10</text>
  <rect x="528"  y="0"   width="48" height="36" fill="#bbbbbb"/><text x="552" y="22" class="idx">11</text>
  <rect x="576"  y="0"   width="48" height="36" fill="#cccccc"/><text x="600" y="22" class="idx">12</text>
  <rect x="624"  y="0"   width="48" height="36" fill="#dddddd"/><text x="648" y="22" class="idx">13</text>
  <rect x="672"  y="0"   width="48" height="36" fill="#eeeeee"/><text x="696" y="22" class="idx">14</text>
  <rect x="720"  y="0"   width="48" height="36" fill="#ffffff"/><text x="744" y="22" class="idx">15</text>

  <!-- Row 1: 16..31 -->
  <rect x="0"    y="36"  width="48" height="36" fill="#190700"/><text x="24"  y="58" class="idx">16</text>
  <rect x="48"   y="36"  width="48" height="36" fill="#2a1800"/><text x="72"  y="58" class="idx">17</text>
  <rect x="96"   y="36"  width="48" height="36" fill="#3b2900"/><text x="120" y="58" class="idx">18</text>
  <rect x="144"  y="36"  width="48" height="36" fill="#4c3a00"/><text x="168" y="58" class="idx">19</text>
  <rect x="192"  y="36"  width="48" height="36" fill="#5d4b00"/><text x="216" y="58" class="idx">20</text>
  <rect x="240"  y="36"  width="48" height="36" fill="#6e5c00"/><text x="264" y="58" class="idx">21</text>
  <rect x="288"  y="36"  width="48" height="36" fill="#7f6d00"/><text x="312" y="58" class="idx">22</text>
  <rect x="336"  y="36"  width="48" height="36" fill="#907e09"/><text x="360" y="58" class="idx">23</text>
  <rect x="384"  y="36"  width="48" height="36" fill="#a18f1a"/><text x="408" y="58" class="idx">24</text>
  <rect x="432"  y="36"  width="48" height="36" fill="#b3a02b"/><text x="456" y="58" class="idx">25</text>
  <rect x="480"  y="36"  width="48" height="36" fill="#c3b13c"/><text x="504" y="58" class="idx">26</text>
  <rect x="528"  y="36"  width="48" height="36" fill="#d4c24d"/><text x="552" y="58" class="idx">27</text>
  <rect x="576"  y="36"  width="48" height="36" fill="#e5d35e"/><text x="600" y="58" class="idx">28</text>
  <rect x="624"  y="36"  width="48" height="36" fill="#f7e46f"/><text x="648" y="58" class="idx">29</text>
  <rect x="672"  y="36"  width="48" height="36" fill="#fff582"/><text x="696" y="58" class="idx">30</text>
  <rect x="720"  y="36"  width="48" height="36" fill="#ffff96"/><text x="744" y="58" class="idx">31</text>

  <!-- Row 2: 32..47 -->
  <rect x="0"    y="72"  width="48" height="36" fill="#310000"/><text x="24"  y="94" class="idx">32</text>
  <rect x="48"   y="72"  width="48" height="36" fill="#3f0000"/><text x="72"  y="94" class="idx">33</text>
  <rect x="96"   y="72"  width="48" height="36" fill="#531700"/><text x="120" y="94" class="idx">34</text>
  <rect x="144"  y="72"  width="48" height="36" fill="#642800"/><text x="168" y="94" class="idx">35</text>
  <rect x="192"  y="72"  width="48" height="36" fill="#753900"/><text x="216" y="94" class="idx">36</text>
  <rect x="240"  y="72"  width="48" height="36" fill="#864a00"/><text x="264" y="94" class="idx">37</text>
  <rect x="288"  y="72"  width="48" height="36" fill="#975b0a"/><text x="312" y="94" class="idx">38</text>
  <rect x="336"  y="72"  width="48" height="36" fill="#a86c1b"/><text x="360" y="94" class="idx">39</text>
  <rect x="384"  y="72"  width="48" height="36" fill="#b97d2c"/><text x="408" y="94" class="idx">40</text>
  <rect x="432"  y="72"  width="48" height="36" fill="#ca8e3d"/><text x="456" y="94" class="idx">41</text>
  <rect x="480"  y="72"  width="48" height="36" fill="#db9f4e"/><text x="504" y="94" class="idx">42</text>
  <rect x="528"  y="72"  width="48" height="36" fill="#ecb05f"/><text x="552" y="94" class="idx">43</text>
  <rect x="576"  y="72"  width="48" height="36" fill="#fdc170"/><text x="600" y="94" class="idx">44</text>
  <rect x="624"  y="72"  width="48" height="36" fill="#ffd285"/><text x="648" y="94" class="idx">45</text>
  <rect x="672"  y="72"  width="48" height="36" fill="#ffe39c"/><text x="696" y="94" class="idx">46</text>
  <rect x="720"  y="72"  width="48" height="36" fill="#fff4b2"/><text x="744" y="94" class="idx">47</text>

  <!-- Row 3: 48..63 -->
  <rect x="0"    y="108" width="48" height="36" fill="#420404"/><text x="24"  y="130" class="idx">48</text>
  <rect x="48"   y="108" width="48" height="36" fill="#4f0000"/><text x="72"  y="130" class="idx">49</text>
  <rect x="96"   y="108" width="48" height="36" fill="#600800"/><text x="120" y="130" class="idx">50</text>
  <rect x="144"  y="108" width="48" height="36" fill="#711900"/><text x="168" y="130" class="idx">51</text>
  <rect x="192"  y="108" width="48" height="36" fill="#822a0d"/><text x="216" y="130" class="idx">52</text>
  <rect x="240"  y="108" width="48" height="36" fill="#933b1e"/><text x="264" y="130" class="idx">53</text>
  <rect x="288"  y="108" width="48" height="36" fill="#a44c2f"/><text x="312" y="130" class="idx">54</text>
  <rect x="336"  y="108" width="48" height="36" fill="#b55d40"/><text x="360" y="130" class="idx">55</text>
  <rect x="384"  y="108" width="48" height="36" fill="#c66e51"/><text x="408" y="130" class="idx">56</text>
  <rect x="432"  y="108" width="48" height="36" fill="#d77f62"/><text x="456" y="130" class="idx">57</text>
  <rect x="480"  y="108" width="48" height="36" fill="#e89073"/><text x="504" y="130" class="idx">58</text>
  <rect x="528"  y="108" width="48" height="36" fill="#f9a183"/><text x="552" y="130" class="idx">59</text>
  <rect x="576"  y="108" width="48" height="36" fill="#ffb298"/><text x="600" y="130" class="idx">60</text>
  <rect x="624"  y="108" width="48" height="36" fill="#ffc3ae"/><text x="648" y="130" class="idx">61</text>
  <rect x="672"  y="108" width="48" height="36" fill="#ffd4c4"/><text x="696" y="130" class="idx">62</text>
  <rect x="720"  y="108" width="48" height="36" fill="#ffe5da"/><text x="744" y="130" class="idx">63</text>

  <!-- Row 4: 64..79 -->
  <rect x="0"    y="144" width="48" height="36" fill="#410103"/><text x="24"  y="166" class="idx">64</text>
  <rect x="48"   y="144" width="48" height="36" fill="#50000f"/><text x="72"  y="166" class="idx">65</text>
  <rect x="96"   y="144" width="48" height="36" fill="#61001b"/><text x="120" y="166" class="idx">66</text>
  <rect x="144"  y="144" width="48" height="36" fill="#720f2b"/><text x="168" y="166" class="idx">67</text>
  <rect x="192"  y="144" width="48" height="36" fill="#83203c"/><text x="216" y="166" class="idx">68</text>
  <rect x="240"  y="144" width="48" height="36" fill="#94314d"/><text x="264" y="166" class="idx">69</text>
  <rect x="288"  y="144" width="48" height="36" fill="#a5425e"/><text x="312" y="166" class="idx">70</text>
  <rect x="336"  y="144" width="48" height="36" fill="#b6536f"/><text x="360" y="166" class="idx">71</text>
  <rect x="384"  y="144" width="48" height="36" fill="#c76480"/><text x="408" y="166" class="idx">72</text>
  <rect x="432"  y="144" width="48" height="36" fill="#d87591"/><text x="456" y="166" class="idx">73</text>
  <rect x="480"  y="144" width="48" height="36" fill="#e986a2"/><text x="504" y="166" class="idx">74</text>
  <rect x="528"  y="144" width="48" height="36" fill="#fa97b3"/><text x="552" y="166" class="idx">75</text>
  <rect x="576"  y="144" width="48" height="36" fill="#ffa8c8"/><text x="600" y="166" class="idx">76</text>
  <rect x="624"  y="144" width="48" height="36" fill="#ffb9de"/><text x="648" y="166" class="idx">77</text>
  <rect x="672"  y="144" width="48" height="36" fill="#ffcaef"/><text x="696" y="166" class="idx">78</text>
  <rect x="720"  y="144" width="48" height="36" fill="#fbdcf6"/><text x="744" y="166" class="idx">79</text>

  <!-- Row 5: 80..95 -->
  <rect x="0"    y="180" width="48" height="36" fill="#330035"/><text x="24"  y="202" class="idx">80</text>
  <rect x="48"   y="180" width="48" height="36" fill="#440041"/><text x="72"  y="202" class="idx">81</text>
  <rect x="96"   y="180" width="48" height="36" fill="#55004c"/><text x="120" y="202" class="idx">82</text>
  <rect x="144"  y="180" width="48" height="36" fill="#660c5c"/><text x="168" y="202" class="idx">83</text>
  <rect x="192"  y="180" width="48" height="36" fill="#771d6d"/><text x="216" y="202" class="idx">84</text>
  <rect x="240"  y="180" width="48" height="36" fill="#882e7e"/><text x="264" y="202" class="idx">85</text>
  <rect x="288"  y="180" width="48" height="36" fill="#993f8f"/><text x="312" y="202" class="idx">86</text>
  <rect x="336"  y="180" width="48" height="36" fill="#aa50a0"/><text x="360" y="202" class="idx">87</text>
  <rect x="384"  y="180" width="48" height="36" fill="#bb61b1"/><text x="408" y="202" class="idx">88</text>
  <rect x="432"  y="180" width="48" height="36" fill="#cc72c2"/><text x="456" y="202" class="idx">89</text>
  <rect x="480"  y="180" width="48" height="36" fill="#dd83d3"/><text x="504" y="202" class="idx">90</text>
  <rect x="528"  y="180" width="48" height="36" fill="#ee94e4"/><text x="552" y="202" class="idx">91</text>
  <rect x="576"  y="180" width="48" height="36" fill="#ffa5e4"/><text x="600" y="202" class="idx">92</text>
  <rect x="624"  y="180" width="48" height="36" fill="#ffb6e9"/><text x="648" y="202" class="idx">93</text>
  <rect x="672"  y="180" width="48" height="36" fill="#ffc7ee"/><text x="696" y="202" class="idx">94</text>
  <rect x="720"  y="180" width="48" height="36" fill="#ffd8f3"/><text x="744" y="202" class="idx">95</text>

  <!-- Row 6: 96..111 -->
  <rect x="0"    y="216" width="48" height="36" fill="#1d005c"/><text x="24"  y="238" class="idx">96</text>
  <rect x="48"   y="216" width="48" height="36" fill="#2e0068"/><text x="72"  y="238" class="idx">97</text>
  <rect x="96"   y="216" width="48" height="36" fill="#400074"/><text x="120" y="238" class="idx">98</text>
  <rect x="144"  y="216" width="48" height="36" fill="#511084"/><text x="168" y="238" class="idx">99</text>
  <rect x="192"  y="216" width="48" height="36" fill="#622195"/><text x="216" y="238" class="idx">100</text>
  <rect x="240"  y="216" width="48" height="36" fill="#7332a6"/><text x="264" y="238" class="idx">101</text>
  <rect x="288"  y="216" width="48" height="36" fill="#8443b7"/><text x="312" y="238" class="idx">102</text>
  <rect x="336"  y="216" width="48" height="36" fill="#9554c8"/><text x="360" y="238" class="idx">103</text>
  <rect x="384"  y="216" width="48" height="36" fill="#a665d9"/><text x="408" y="238" class="idx">104</text>
  <rect x="432"  y="216" width="48" height="36" fill="#b776ea"/><text x="456" y="238" class="idx">105</text>
  <rect x="480"  y="216" width="48" height="36" fill="#c887eb"/><text x="504" y="238" class="idx">106</text>
  <rect x="528"  y="216" width="48" height="36" fill="#d998eb"/><text x="552" y="238" class="idx">107</text>
  <rect x="576"  y="216" width="48" height="36" fill="#e9a9ec"/><text x="600" y="238" class="idx">108</text>
  <rect x="624"  y="216" width="48" height="36" fill="#fbbaeb"/><text x="648" y="238" class="idx">109</text>
  <rect x="672"  y="216" width="48" height="36" fill="#ffcbef"/><text x="696" y="238" class="idx">110</text>
  <rect x="720"  y="216" width="48" height="36" fill="#ffdff9"/><text x="744" y="238" class="idx">111</text>

  <!-- Row 7: 112..127 -->
  <rect x="0"    y="252" width="48" height="36" fill="#020071"/><text x="24"  y="274" class="idx">112</text>
  <rect x="48"   y="252" width="48" height="36" fill="#13007d"/><text x="72"  y="274" class="idx">113</text>
  <rect x="96"   y="252" width="48" height="36" fill="#240b8c"/><text x="120" y="274" class="idx">114</text>
  <rect x="144"  y="252" width="48" height="36" fill="#351c9d"/><text x="168" y="274" class="idx">115</text>
  <rect x="192"  y="252" width="48" height="36" fill="#462dae"/><text x="216" y="274" class="idx">116</text>
  <rect x="240"  y="252" width="48" height="36" fill="#573ebf"/><text x="264" y="274" class="idx">117</text>
  <rect x="288"  y="252" width="48" height="36" fill="#684fd0"/><text x="312" y="274" class="idx">118</text>
  <rect x="336"  y="252" width="48" height="36" fill="#7960e1"/><text x="360" y="274" class="idx">119</text>
  <rect x="384"  y="252" width="48" height="36" fill="#8a71f2"/><text x="408" y="274" class="idx">120</text>
  <rect x="432"  y="252" width="48" height="36" fill="#9b82f7"/><text x="456" y="274" class="idx">121</text>
  <rect x="480"  y="252" width="48" height="36" fill="#ac93f7"/><text x="504" y="274" class="idx">122</text>
  <rect x="528"  y="252" width="48" height="36" fill="#bda4f7"/><text x="552" y="274" class="idx">123</text>
  <rect x="576"  y="252" width="48" height="36" fill="#ceb5f7"/><text x="600" y="274" class="idx">124</text>
  <rect x="624"  y="252" width="48" height="36" fill="#dfc6f7"/><text x="648" y="274" class="idx">125</text>
  <rect x="672"  y="252" width="48" height="36" fill="#f0d7f7"/><text x="696" y="274" class="idx">126</text>
  <rect x="720"  y="252" width="48" height="36" fill="#ffe8f8"/><text x="744" y="274" class="idx">127</text>

  <!-- Row 8: 128..143 -->
  <rect x="0"    y="288" width="48" height="36" fill="#000068"/><text x="24"  y="310" class="idx">128</text>
  <rect x="48"   y="288" width="48" height="36" fill="#000a7c"/><text x="72"  y="310" class="idx">129</text>
  <rect x="96"   y="288" width="48" height="36" fill="#081b90"/><text x="120" y="310" class="idx">130</text>
  <rect x="144"  y="288" width="48" height="36" fill="#192ca1"/><text x="168" y="310" class="idx">131</text>
  <rect x="192"  y="288" width="48" height="36" fill="#2a3db2"/><text x="216" y="310" class="idx">132</text>
  <rect x="240"  y="288" width="48" height="36" fill="#3b4ec3"/><text x="264" y="310" class="idx">133</text>
  <rect x="288"  y="288" width="48" height="36" fill="#4c5fd4"/><text x="312" y="310" class="idx">134</text>
  <rect x="336"  y="288" width="48" height="36" fill="#5d70e5"/><text x="360" y="310" class="idx">135</text>
  <rect x="384"  y="288" width="48" height="36" fill="#6e81f6"/><text x="408" y="310" class="idx">136</text>
  <rect x="432"  y="288" width="48" height="36" fill="#7f92ff"/><text x="456" y="310" class="idx">137</text>
  <rect x="480"  y="288" width="48" height="36" fill="#90a3ff"/><text x="504" y="310" class="idx">138</text>
  <rect x="528"  y="288" width="48" height="36" fill="#a1b4ff"/><text x="552" y="310" class="idx">139</text>
  <rect x="576"  y="288" width="48" height="36" fill="#b2c5ff"/><text x="600" y="310" class="idx">140</text>
  <rect x="624"  y="288" width="48" height="36" fill="#c3d6ff"/><text x="648" y="310" class="idx">141</text>
  <rect x="672"  y="288" width="48" height="36" fill="#d4e7ff"/><text x="696" y="310" class="idx">142</text>
  <rect x="720"  y="288" width="48" height="36" fill="#e5f8ff"/><text x="744" y="310" class="idx">143</text>

  <!-- Row 9: 144..159 -->
  <rect x="0"    y="324" width="48" height="36" fill="#000a4d"/><text x="24"  y="346" class="idx">144</text>
  <rect x="48"   y="324" width="48" height="36" fill="#001b63"/><text x="72"  y="346" class="idx">145</text>
  <rect x="96"   y="324" width="48" height="36" fill="#002c79"/><text x="120" y="346" class="idx">146</text>
  <rect x="144"  y="324" width="48" height="36" fill="#023d8f"/><text x="168" y="346" class="idx">147</text>
  <rect x="192"  y="324" width="48" height="36" fill="#134ea0"/><text x="216" y="346" class="idx">148</text>
  <rect x="240"  y="324" width="48" height="36" fill="#245fb1"/><text x="264" y="346" class="idx">149</text>
  <rect x="288"  y="324" width="48" height="36" fill="#3570c2"/><text x="312" y="346" class="idx">150</text>
  <rect x="336"  y="324" width="48" height="36" fill="#4681d3"/><text x="360" y="346" class="idx">151</text>
  <rect x="384"  y="324" width="48" height="36" fill="#5792e4"/><text x="408" y="346" class="idx">152</text>
  <rect x="432"  y="324" width="48" height="36" fill="#68a3f5"/><text x="456" y="346" class="idx">153</text>
  <rect x="480"  y="324" width="48" height="36" fill="#79b4ff"/><text x="504" y="346" class="idx">154</text>
  <rect x="528"  y="324" width="48" height="36" fill="#8ac5ff"/><text x="552" y="346" class="idx">155</text>
  <rect x="576"  y="324" width="48" height="36" fill="#9bd6ff"/><text x="600" y="346" class="idx">156</text>
  <rect x="624"  y="324" width="48" height="36" fill="#ace7ff"/><text x="648" y="346" class="idx">157</text>
  <rect x="672"  y="324" width="48" height="36" fill="#bdf8ff"/><text x="696" y="346" class="idx">158</text>
  <rect x="720"  y="324" width="48" height="36" fill="#ceffff"/><text x="744" y="346" class="idx">159</text>

  <!-- Row 10: 160..175 -->
  <rect x="0"    y="360" width="48" height="36" fill="#001a26"/><text x="24"  y="382" class="idx">160</text>
  <rect x="48"   y="360" width="48" height="36" fill="#002b3c"/><text x="72"  y="382" class="idx">161</text>
  <rect x="96"   y="360" width="48" height="36" fill="#003c52"/><text x="120" y="382" class="idx">162</text>
  <rect x="144"  y="360" width="48" height="36" fill="#004d68"/><text x="168" y="382" class="idx">163</text>
  <rect x="192"  y="360" width="48" height="36" fill="#065e7c"/><text x="216" y="382" class="idx">164</text>
  <rect x="240"  y="360" width="48" height="36" fill="#176f8d"/><text x="264" y="382" class="idx">165</text>
  <rect x="288"  y="360" width="48" height="36" fill="#28809e"/><text x="312" y="382" class="idx">166</text>
  <rect x="336"  y="360" width="48" height="36" fill="#3991af"/><text x="360" y="382" class="idx">167</text>
  <rect x="384"  y="360" width="48" height="36" fill="#4aa2c0"/><text x="408" y="382" class="idx">168</text>
  <rect x="432"  y="360" width="48" height="36" fill="#5bb3d1"/><text x="456" y="382" class="idx">169</text>
  <rect x="480"  y="360" width="48" height="36" fill="#6cc4e2"/><text x="504" y="382" class="idx">170</text>
  <rect x="528"  y="360" width="48" height="36" fill="#7dd5f3"/><text x="552" y="382" class="idx">171</text>
  <rect x="576"  y="360" width="48" height="36" fill="#8ee6ff"/><text x="600" y="382" class="idx">172</text>
  <rect x="624"  y="360" width="48" height="36" fill="#9ff7ff"/><text x="648" y="382" class="idx">173</text>
  <rect x="672"  y="360" width="48" height="36" fill="#b0ffff"/><text x="696" y="382" class="idx">174</text>
  <rect x="720"  y="360" width="48" height="36" fill="#c1ffff"/><text x="744" y="382" class="idx">175</text>

  <!-- Row 11: 176..191 -->
  <rect x="0"    y="396" width="48" height="36" fill="#01250a"/><text x="24"  y="418" class="idx">176</text>
  <rect x="48"   y="396" width="48" height="36" fill="#023610"/><text x="72"  y="418" class="idx">177</text>
  <rect x="96"   y="396" width="48" height="36" fill="#004622"/><text x="120" y="418" class="idx">178</text>
  <rect x="144"  y="396" width="48" height="36" fill="#005738"/><text x="168" y="418" class="idx">179</text>
  <rect x="192"  y="396" width="48" height="36" fill="#05684d"/><text x="216" y="418" class="idx">180</text>
  <rect x="240"  y="396" width="48" height="36" fill="#16795e"/><text x="264" y="418" class="idx">181</text>
  <rect x="288"  y="396" width="48" height="36" fill="#278a6f"/><text x="312" y="418" class="idx">182</text>
  <rect x="336"  y="396" width="48" height="36" fill="#389b80"/><text x="360" y="418" class="idx">183</text>
  <rect x="384"  y="396" width="48" height="36" fill="#49ac91"/><text x="408" y="418" class="idx">184</text>
  <rect x="432"  y="396" width="48" height="36" fill="#5abda2"/><text x="456" y="418" class="idx">185</text>
  <rect x="480"  y="396" width="48" height="36" fill="#6bceb3"/><text x="504" y="418" class="idx">186</text>
  <rect x="528"  y="396" width="48" height="36" fill="#7cdfc4"/><text x="552" y="418" class="idx">187</text>
  <rect x="576"  y="396" width="48" height="36" fill="#8df0d5"/><text x="600" y="418" class="idx">188</text>
  <rect x="624"  y="396" width="48" height="36" fill="#9effe5"/><text x="648" y="418" class="idx">189</text>
  <rect x="672"  y="396" width="48" height="36" fill="#affff1"/><text x="696" y="418" class="idx">190</text>
  <rect x="720"  y="396" width="48" height="36" fill="#c0fffd"/><text x="744" y="418" class="idx">191</text>

  <!-- Row 12: 192..207 -->
  <rect x="0"    y="432" width="48" height="36" fill="#04260d"/><text x="24"  y="454" class="idx">192</text>
  <rect x="48"   y="432" width="48" height="36" fill="#043811"/><text x="72"  y="454" class="idx">193</text>
  <rect x="96"   y="432" width="48" height="36" fill="#054713"/><text x="120" y="454" class="idx">194</text>
  <rect x="144"  y="432" width="48" height="36" fill="#005a1b"/><text x="168" y="454" class="idx">195</text>
  <rect x="192"  y="432" width="48" height="36" fill="#106b1b"/><text x="216" y="454" class="idx">196</text>
  <rect x="240"  y="432" width="48" height="36" fill="#217c2c"/><text x="264" y="454" class="idx">197</text>
  <rect x="288"  y="432" width="48" height="36" fill="#328d3d"/><text x="312" y="454" class="idx">198</text>
  <rect x="336"  y="432" width="48" height="36" fill="#439e4e"/><text x="360" y="454" class="idx">199</text>
  <rect x="384"  y="432" width="48" height="36" fill="#54af5f"/><text x="408" y="454" class="idx">200</text>
  <rect x="432"  y="432" width="48" height="36" fill="#65c070"/><text x="456" y="454" class="idx">201</text>
  <rect x="480"  y="432" width="48" height="36" fill="#76d181"/><text x="504" y="454" class="idx">202</text>
  <rect x="528"  y="432" width="48" height="36" fill="#87e292"/><text x="552" y="454" class="idx">203</text>
  <rect x="576"  y="432" width="48" height="36" fill="#98f3a3"/><text x="600" y="454" class="idx">204</text>
  <rect x="624"  y="432" width="48" height="36" fill="#a9ffb3"/><text x="648" y="454" class="idx">205</text>
  <rect x="672"  y="432" width="48" height="36" fill="#baffbf"/><text x="696" y="454" class="idx">206</text>
  <rect x="720"  y="432" width="48" height="36" fill="#cbffcb"/><text x="744" y="454" class="idx">207</text>

  <!-- Row 13: 208..223 -->
  <rect x="0"    y="468" width="48" height="36" fill="#00230a"/><text x="24"  y="490" class="idx">208</text>
  <rect x="48"   y="468" width="48" height="36" fill="#003510"/><text x="72"  y="490" class="idx">209</text>
  <rect x="96"   y="468" width="48" height="36" fill="#044613"/><text x="120" y="490" class="idx">210</text>
  <rect x="144"  y="468" width="48" height="36" fill="#155613"/><text x="168" y="490" class="idx">211</text>
  <rect x="192"  y="468" width="48" height="36" fill="#266713"/><text x="216" y="490" class="idx">212</text>
  <rect x="240"  y="468" width="48" height="36" fill="#377813"/><text x="264" y="490" class="idx">213</text>
  <rect x="288"  y="468" width="48" height="36" fill="#488914"/><text x="312" y="490" class="idx">214</text>
  <rect x="336"  y="468" width="48" height="36" fill="#599a25"/><text x="360" y="490" class="idx">215</text>
  <rect x="384"  y="468" width="48" height="36" fill="#6aab36"/><text x="408" y="490" class="idx">216</text>
  <rect x="432"  y="468" width="48" height="36" fill="#7bbc47"/><text x="456" y="490" class="idx">217</text>
  <rect x="480"  y="468" width="48" height="36" fill="#8ccd58"/><text x="504" y="490" class="idx">218</text>
  <rect x="528"  y="468" width="48" height="36" fill="#9dde69"/><text x="552" y="490" class="idx">219</text>
  <rect x="576"  y="468" width="48" height="36" fill="#aeef7a"/><text x="600" y="490" class="idx">220</text>
  <rect x="624"  y="468" width="48" height="36" fill="#bfff8b"/><text x="648" y="490" class="idx">221</text>
  <rect x="672"  y="468" width="48" height="36" fill="#d0ff97"/><text x="696" y="490" class="idx">222</text>
  <rect x="720"  y="468" width="48" height="36" fill="#e1ffa3"/><text x="744" y="490" class="idx">223</text>

  <!-- Row 14: 224..239 -->
  <rect x="0"    y="504" width="48" height="36" fill="#001707"/><text x="24"  y="526" class="idx">224</text>
  <rect x="48"   y="504" width="48" height="36" fill="#0e2808"/><text x="72"  y="526" class="idx">225</text>
  <rect x="96"   y="504" width="48" height="36" fill="#1f3908"/><text x="120" y="526" class="idx">226</text>
  <rect x="144"  y="504" width="48" height="36" fill="#304a08"/><text x="168" y="526" class="idx">227</text>
  <rect x="192"  y="504" width="48" height="36" fill="#415b08"/><text x="216" y="526" class="idx">228</text>
  <rect x="240"  y="504" width="48" height="36" fill="#526c08"/><text x="264" y="526" class="idx">229</text>
  <rect x="288"  y="504" width="48" height="36" fill="#637d08"/><text x="312" y="526" class="idx">230</text>
  <rect x="336"  y="504" width="48" height="36" fill="#748e0d"/><text x="360" y="526" class="idx">231</text>
  <rect x="384"  y="504" width="48" height="36" fill="#859f1e"/><text x="408" y="526" class="idx">232</text>
  <rect x="432"  y="504" width="48" height="36" fill="#96b02f"/><text x="456" y="526" class="idx">233</text>
  <rect x="480"  y="504" width="48" height="36" fill="#a7c140"/><text x="504" y="526" class="idx">234</text>
  <rect x="528"  y="504" width="48" height="36" fill="#b8d251"/><text x="552" y="526" class="idx">235</text>
  <rect x="576"  y="504" width="48" height="36" fill="#c9e362"/><text x="600" y="526" class="idx">236</text>
  <rect x="624"  y="504" width="48" height="36" fill="#daf473"/><text x="648" y="526" class="idx">237</text>
  <rect x="672"  y="504" width="48" height="36" fill="#ebff82"/><text x="696" y="526" class="idx">238</text>
  <rect x="720"  y="504" width="48" height="36" fill="#fcff8e"/><text x="744" y="526" class="idx">239</text>

  <!-- Row 15: 240..255 -->
  <rect x="0"    y="540" width="48" height="36" fill="#1b0701"/><text x="24"  y="562" class="idx">240</text>
  <rect x="48"   y="540" width="48" height="36" fill="#2c1801"/><text x="72"  y="562" class="idx">241</text>
  <rect x="96"   y="540" width="48" height="36" fill="#3c2900"/><text x="120" y="562" class="idx">242</text>
  <rect x="144"  y="540" width="48" height="36" fill="#4d3b00"/><text x="168" y="562" class="idx">243</text>
  <rect x="192"  y="540" width="48" height="36" fill="#5f4c00"/><text x="216" y="562" class="idx">244</text>
  <rect x="240"  y="540" width="48" height="36" fill="#705e00"/><text x="264" y="562" class="idx">245</text>
  <rect x="288"  y="540" width="48" height="36" fill="#816f00"/><text x="312" y="562" class="idx">246</text>
  <rect x="336"  y="540" width="48" height="36" fill="#938009"/><text x="360" y="562" class="idx">247</text>
  <rect x="384"  y="540" width="48" height="36" fill="#a4921a"/><text x="408" y="562" class="idx">248</text>
  <rect x="432"  y="540" width="48" height="36" fill="#b2a02b"/><text x="456" y="562" class="idx">249</text>
  <rect x="480"  y="540" width="48" height="36" fill="#c7b43d"/><text x="504" y="562" class="idx">250</text>
  <rect x="528"  y="540" width="48" height="36" fill="#d8c64e"/><text x="552" y="562" class="idx">251</text>
  <rect x="576"  y="540" width="48" height="36" fill="#ead760"/><text x="600" y="562" class="idx">252</text>
  <rect x="624"  y="540" width="48" height="36" fill="#f6e46f"/><text x="648" y="562" class="idx">253</text>
  <rect x="672"  y="540" width="48" height="36" fill="#fffa84"/><text x="696" y="562" class="idx">254</text>
  <rect x="720"  y="540" width="48" height="36" fill="#ffff99"/><text x="744" y="562" class="idx">255</text>
</svg>