<?xml version="1.0" encoding="utf-8"?>
<!-- Pico Logo full 256-colour palette as an 8×32 grid. Each cell shows the palette index. -->
<svg xmlns="http://www.w3.org/2000/svg" width="576" height="768" viewBox="0 0 576 768" role="img" aria-label="Colour Palette for Pico Logo">
  <style>
    .idx-d { font-family: monospace, monospace; font-size:10px; font-weight:700; fill: #000000; }
    .idx-l { font-family: monospace, monospace; font-size:10px; font-weight:700; fill: #ffffff; }
  </style>
  <!-- Row 0: 0..7 (Text palette (0-7)) -->
  <rect x="0" y="0" width="72" height="24" fill="#000000"/><text x="36" y="16" text-anchor="middle" class="idx-l">0</text>
  <rect x="72" y="0" width="72" height="24" fill="#555555"/><text x="108" y="16" text-anchor="middle" class="idx-l">1</text>
  <rect x="144" y="0" width="72" height="24" fill="#aaaaaa"/><text x="180" y="16" text-anchor="middle" class="idx-d">2</text>
  <rect x="216" y="0" width="72" height="24" fill="#ffffff"/><text x="252" y="16" text-anchor="middle" class="idx-d">3</text>
  <rect x="288" y="0" width="72" height="24" fill="#18181e"/><text x="324" y="16" text-anchor="middle" class="idx-l">4</text>
  <rect x="360" y="0" width="72" height="24" fill="#ea4747"/><text x="396" y="16" text-anchor="middle" class="idx-l">5</text>
  <rect x="432" y="0" width="72" height="24" fill="#ff9650"/><text x="468" y="16" text-anchor="middle" class="idx-d">6</text>
  <rect x="504" y="0" width="72" height="24" fill="#ffd250"/><text x="540" y="16" text-anchor="middle" class="idx-d">7</text>
  <!-- Row 1: 8..15 (Text palette (8-15)) -->
  <rect x="0" y="24" width="72" height="24" fill="#fff064"/><text x="36" y="40" text-anchor="middle" class="idx-d">8</text>
  <rect x="72" y="24" width="72" height="24" fill="#82f082"/><text x="108" y="40" text-anchor="middle" class="idx-d">9</text>
  <rect x="144" y="24" width="72" height="24" fill="#50c850"/><text x="180" y="40" text-anchor="middle" class="idx-d">10</text>
  <rect x="216" y="24" width="72" height="24" fill="#50d2ff"/><text x="252" y="40" text-anchor="middle" class="idx-d">11</text>
  <rect x="288" y="24" width="72" height="24" fill="#e664ff"/><text x="324" y="40" text-anchor="middle" class="idx-d">12</text>
  <rect x="360" y="24" width="72" height="24" fill="#ea47c1"/><text x="396" y="40" text-anchor="middle" class="idx-d">13</text>
  <rect x="432" y="24" width="72" height="24" fill="#ffdc14"/><text x="468" y="40" text-anchor="middle" class="idx-d">14</text>
  <rect x="504" y="24" width="72" height="24" fill="#14b4ff"/><text x="540" y="40" text-anchor="middle" class="idx-d">15</text>
  <!-- Row 2: 16..23 (Red) -->
  <rect x="0" y="48" width="72" height="24" fill="#7f1d1d"/><text x="36" y="64" text-anchor="middle" class="idx-l">16</text>
  <rect x="72" y="48" width="72" height="24" fill="#991b1b"/><text x="108" y="64" text-anchor="middle" class="idx-l">17</text>
  <rect x="144" y="48" width="72" height="24" fill="#b91c1c"/><text x="180" y="64" text-anchor="middle" class="idx-l">18</text>
  <rect x="216" y="48" width="72" height="24" fill="#dc2626"/><text x="252" y="64" text-anchor="middle" class="idx-l">19</text>
  <rect x="288" y="48" width="72" height="24" fill="#ef4444"/><text x="324" y="64" text-anchor="middle" class="idx-l">20</text>
  <rect x="360" y="48" width="72" height="24" fill="#f87171"/><text x="396" y="64" text-anchor="middle" class="idx-d">21</text>
  <rect x="432" y="48" width="72" height="24" fill="#fca5a5"/><text x="468" y="64" text-anchor="middle" class="idx-d">22</text>
  <rect x="504" y="48" width="72" height="24" fill="#fecaca"/><text x="540" y="64" text-anchor="middle" class="idx-d">23</text>
  <!-- Row 3: 24..31 (Orange) -->
  <rect x="0" y="72" width="72" height="24" fill="#7c2d12"/><text x="36" y="88" text-anchor="middle" class="idx-l">24</text>
  <rect x="72" y="72" width="72" height="24" fill="#9a3412"/><text x="108" y="88" text-anchor="middle" class="idx-l">25</text>
  <rect x="144" y="72" width="72" height="24" fill="#c2410c"/><text x="180" y="88" text-anchor="middle" class="idx-l">26</text>
  <rect x="216" y="72" width="72" height="24" fill="#ea580c"/><text x="252" y="88" text-anchor="middle" class="idx-l">27</text>
  <rect x="288" y="72" width="72" height="24" fill="#f97316"/><text x="324" y="88" text-anchor="middle" class="idx-d">28</text>
  <rect x="360" y="72" width="72" height="24" fill="#fb923c"/><text x="396" y="88" text-anchor="middle" class="idx-d">29</text>
  <rect x="432" y="72" width="72" height="24" fill="#fdba74"/><text x="468" y="88" text-anchor="middle" class="idx-d">30</text>
  <rect x="504" y="72" width="72" height="24" fill="#fed7aa"/><text x="540" y="88" text-anchor="middle" class="idx-d">31</text>
  <!-- Row 4: 32..39 (Amber) -->
  <rect x="0" y="96" width="72" height="24" fill="#78350f"/><text x="36" y="112" text-anchor="middle" class="idx-l">32</text>
  <rect x="72" y="96" width="72" height="24" fill="#92400e"/><text x="108" y="112" text-anchor="middle" class="idx-l">33</text>
  <rect x="144" y="96" width="72" height="24" fill="#b45309"/><text x="180" y="112" text-anchor="middle" class="idx-l">34</text>
  <rect x="216" y="96" width="72" height="24" fill="#d97706"/><text x="252" y="112" text-anchor="middle" class="idx-d">35</text>
  <rect x="288" y="96" width="72" height="24" fill="#f59e0b"/><text x="324" y="112" text-anchor="middle" class="idx-d">36</text>
  <rect x="360" y="96" width="72" height="24" fill="#fbbf24"/><text x="396" y="112" text-anchor="middle" class="idx-d">37</text>
  <rect x="432" y="96" width="72" height="24" fill="#fcd34d"/><text x="468" y="112" text-anchor="middle" class="idx-d">38</text>
  <rect x="504" y="96" width="72" height="24" fill="#fde68a"/><text x="540" y="112" text-anchor="middle" class="idx-d">39</text>
  <!-- Row 5: 40..47 (Yellow) -->
  <rect x="0" y="120" width="72" height="24" fill="#713f12"/><text x="36" y="136" text-anchor="middle" class="idx-l">40</text>
  <rect x="72" y="120" width="72" height="24" fill="#854d0e"/><text x="108" y="136" text-anchor="middle" class="idx-l">41</text>
  <rect x="144" y="120" width="72" height="24" fill="#a16207"/><text x="180" y="136" text-anchor="middle" class="idx-l">42</text>
  <rect x="216" y="120" width="72" height="24" fill="#ca8a04"/><text x="252" y="136" text-anchor="middle" class="idx-d">43</text>
  <rect x="288" y="120" width="72" height="24" fill="#eab308"/><text x="324" y="136" text-anchor="middle" class="idx-d">44</text>
  <rect x="360" y="120" width="72" height="24" fill="#facc15"/><text x="396" y="136" text-anchor="middle" class="idx-d">45</text>
  <rect x="432" y="120" width="72" height="24" fill="#fde047"/><text x="468" y="136" text-anchor="middle" class="idx-d">46</text>
  <rect x="504" y="120" width="72" height="24" fill="#fef08a"/><text x="540" y="136" text-anchor="middle" class="idx-d">47</text>
  <!-- Row 6: 48..55 (Lime) -->
  <rect x="0" y="144" width="72" height="24" fill="#365314"/><text x="36" y="160" text-anchor="middle" class="idx-l">48</text>
  <rect x="72" y="144" width="72" height="24" fill="#3f6212"/><text x="108" y="160" text-anchor="middle" class="idx-l">49</text>
  <rect x="144" y="144" width="72" height="24" fill="#4d7c0f"/><text x="180" y="160" text-anchor="middle" class="idx-l">50</text>
  <rect x="216" y="144" width="72" height="24" fill="#65a30d"/><text x="252" y="160" text-anchor="middle" class="idx-l">51</text>
  <rect x="288" y="144" width="72" height="24" fill="#84cc16"/><text x="324" y="160" text-anchor="middle" class="idx-d">52</text>
  <rect x="360" y="144" width="72" height="24" fill="#a3e635"/><text x="396" y="160" text-anchor="middle" class="idx-d">53</text>
  <rect x="432" y="144" width="72" height="24" fill="#bef264"/><text x="468" y="160" text-anchor="middle" class="idx-d">54</text>
  <rect x="504" y="144" width="72" height="24" fill="#d9f99d"/><text x="540" y="160" text-anchor="middle" class="idx-d">55</text>
  <!-- Row 7: 56..63 (Green) -->
  <rect x="0" y="168" width="72" height="24" fill="#14532d"/><text x="36" y="184" text-anchor="middle" class="idx-l">56</text>
  <rect x="72" y="168" width="72" height="24" fill="#166534"/><text x="108" y="184" text-anchor="middle" class="idx-l">57</text>
  <rect x="144" y="168" width="72" height="24" fill="#15803d"/><text x="180" y="184" text-anchor="middle" class="idx-l">58</text>
  <rect x="216" y="168" width="72" height="24" fill="#16a34a"/><text x="252" y="184" text-anchor="middle" class="idx-l">59</text>
  <rect x="288" y="168" width="72" height="24" fill="#22c55e"/><text x="324" y="184" text-anchor="middle" class="idx-d">60</text>
  <rect x="360" y="168" width="72" height="24" fill="#4ade80"/><text x="396" y="184" text-anchor="middle" class="idx-d">61</text>
  <rect x="432" y="168" width="72" height="24" fill="#86efac"/><text x="468" y="184" text-anchor="middle" class="idx-d">62</text>
  <rect x="504" y="168" width="72" height="24" fill="#bbf7d0"/><text x="540" y="184" text-anchor="middle" class="idx-d">63</text>
  <!-- Row 8: 64..71 (Emerald) -->
  <rect x="0" y="192" width="72" height="24" fill="#064e3b"/><text x="36" y="208" text-anchor="middle" class="idx-l">64</text>
  <rect x="72" y="192" width="72" height="24" fill="#065f46"/><text x="108" y="208" text-anchor="middle" class="idx-l">65</text>
  <rect x="144" y="192" width="72" height="24" fill="#047857"/><text x="180" y="208" text-anchor="middle" class="idx-l">66</text>
  <rect x="216" y="192" width="72" height="24" fill="#059669"/><text x="252" y="208" text-anchor="middle" class="idx-l">67</text>
  <rect x="288" y="192" width="72" height="24" fill="#10b981"/><text x="324" y="208" text-anchor="middle" class="idx-d">68</text>
  <rect x="360" y="192" width="72" height="24" fill="#34d399"/><text x="396" y="208" text-anchor="middle" class="idx-d">69</text>
  <rect x="432" y="192" width="72" height="24" fill="#6ee7b7"/><text x="468" y="208" text-anchor="middle" class="idx-d">70</text>
  <rect x="504" y="192" width="72" height="24" fill="#a7f3d0"/><text x="540" y="208" text-anchor="middle" class="idx-d">71</text>
  <!-- Row 9: 72..79 (Teal) -->
  <rect x="0" y="216" width="72" height="24" fill="#134e4a"/><text x="36" y="232" text-anchor="middle" class="idx-l">72</text>
  <rect x="72" y="216" width="72" height="24" fill="#115e59"/><text x="108" y="232" text-anchor="middle" class="idx-l">73</text>
  <rect x="144" y="216" width="72" height="24" fill="#0f766e"/><text x="180" y="232" text-anchor="middle" class="idx-l">74</text>
  <rect x="216" y="216" width="72" height="24" fill="#0d9488"/><text x="252" y="232" text-anchor="middle" class="idx-l">75</text>
  <rect x="288" y="216" width="72" height="24" fill="#14b8a6"/><text x="324" y="232" text-anchor="middle" class="idx-d">76</text>
  <rect x="360" y="216" width="72" height="24" fill="#2dd4bf"/><text x="396" y="232" text-anchor="middle" class="idx-d">77</text>
  <rect x="432" y="216" width="72" height="24" fill="#5eead4"/><text x="468" y="232" text-anchor="middle" class="idx-d">78</text>
  <rect x="504" y="216" width="72" height="24" fill="#99f6e4"/><text x="540" y="232" text-anchor="middle" class="idx-d">79</text>
  <!-- Row 10: 80..87 (Cyan) -->
  <rect x="0" y="240" width="72" height="24" fill="#164e63"/><text x="36" y="256" text-anchor="middle" class="idx-l">80</text>
  <rect x="72" y="240" width="72" height="24" fill="#155e75"/><text x="108" y="256" text-anchor="middle" class="idx-l">81</text>
  <rect x="144" y="240" width="72" height="24" fill="#0e7490"/><text x="180" y="256" text-anchor="middle" class="idx-l">82</text>
  <rect x="216" y="240" width="72" height="24" fill="#0891b2"/><text x="252" y="256" text-anchor="middle" class="idx-l">83</text>
  <rect x="288" y="240" width="72" height="24" fill="#06b6d4"/><text x="324" y="256" text-anchor="middle" class="idx-d">84</text>
  <rect x="360" y="240" width="72" height="24" fill="#22d3ee"/><text x="396" y="256" text-anchor="middle" class="idx-d">85</text>
  <rect x="432" y="240" width="72" height="24" fill="#67e8f9"/><text x="468" y="256" text-anchor="middle" class="idx-d">86</text>
  <rect x="504" y="240" width="72" height="24" fill="#a5f3fc"/><text x="540" y="256" text-anchor="middle" class="idx-d">87</text>
  <!-- Row 11: 88..95 (Sky) -->
  <rect x="0" y="264" width="72" height="24" fill="#0c4a6e"/><text x="36" y="280" text-anchor="middle" class="idx-l">88</text>
  <rect x="72" y="264" width="72" height="24" fill="#075985"/><text x="108" y="280" text-anchor="middle" class="idx-l">89</text>
  <rect x="144" y="264" width="72" height="24" fill="#0369a1"/><text x="180" y="280" text-anchor="middle" class="idx-l">90</text>
  <rect x="216" y="264" width="72" height="24" fill="#0284c7"/><text x="252" y="280" text-anchor="middle" class="idx-l">91</text>
  <rect x="288" y="264" width="72" height="24" fill="#0ea5e9"/><text x="324" y="280" text-anchor="middle" class="idx-l">92</text>
  <rect x="360" y="264" width="72" height="24" fill="#38bdf8"/><text x="396" y="280" text-anchor="middle" class="idx-d">93</text>
  <rect x="432" y="264" width="72" height="24" fill="#7dd3fc"/><text x="468" y="280" text-anchor="middle" class="idx-d">94</text>
  <rect x="504" y="264" width="72" height="24" fill="#bae6fd"/><text x="540" y="280" text-anchor="middle" class="idx-d">95</text>
  <!-- Row 12: 96..103 (Blue) -->
  <rect x="0" y="288" width="72" height="24" fill="#1e3a8a"/><text x="36" y="304" text-anchor="middle" class="idx-l">96</text>
  <rect x="72" y="288" width="72" height="24" fill="#1e40af"/><text x="108" y="304" text-anchor="middle" class="idx-l">97</text>
  <rect x="144" y="288" width="72" height="24" fill="#1d4ed8"/><text x="180" y="304" text-anchor="middle" class="idx-l">98</text>
  <rect x="216" y="288" width="72" height="24" fill="#2563eb"/><text x="252" y="304" text-anchor="middle" class="idx-l">99</text>
  <rect x="288" y="288" width="72" height="24" fill="#3b82f6"/><text x="324" y="304" text-anchor="middle" class="idx-l">100</text>
  <rect x="360" y="288" width="72" height="24" fill="#60a5fa"/><text x="396" y="304" text-anchor="middle" class="idx-d">101</text>
  <rect x="432" y="288" width="72" height="24" fill="#93c5fd"/><text x="468" y="304" text-anchor="middle" class="idx-d">102</text>
  <rect x="504" y="288" width="72" height="24" fill="#bfdbfe"/><text x="540" y="304" text-anchor="middle" class="idx-d">103</text>
  <!-- Row 13: 104..111 (Indigo) -->
  <rect x="0" y="312" width="72" height="24" fill="#312e81"/><text x="36" y="328" text-anchor="middle" class="idx-l">104</text>
  <rect x="72" y="312" width="72" height="24" fill="#3730a3"/><text x="108" y="328" text-anchor="middle" class="idx-l">105</text>
  <rect x="144" y="312" width="72" height="24" fill="#4338ca"/><text x="180" y="328" text-anchor="middle" class="idx-l">106</text>
  <rect x="216" y="312" width="72" height="24" fill="#4f46e5"/><text x="252" y="328" text-anchor="middle" class="idx-l">107</text>
  <rect x="288" y="312" width="72" height="24" fill="#6366f1"/><text x="324" y="328" text-anchor="middle" class="idx-l">108</text>
  <rect x="360" y="312" width="72" height="24" fill="#818cf8"/><text x="396" y="328" text-anchor="middle" class="idx-d">109</text>
  <rect x="432" y="312" width="72" height="24" fill="#a5b4fc"/><text x="468" y="328" text-anchor="middle" class="idx-d">110</text>
  <rect x="504" y="312" width="72" height="24" fill="#c7d2fe"/><text x="540" y="328" text-anchor="middle" class="idx-d">111</text>
  <!-- Row 14: 112..119 (Violet) -->
  <rect x="0" y="336" width="72" height="24" fill="#4c1d95"/><text x="36" y="352" text-anchor="middle" class="idx-l">112</text>
  <rect x="72" y="336" width="72" height="24" fill="#5b21b6"/><text x="108" y="352" text-anchor="middle" class="idx-l">113</text>
  <rect x="144" y="336" width="72" height="24" fill="#6d28d9"/><text x="180" y="352" text-anchor="middle" class="idx-l">114</text>
  <rect x="216" y="336" width="72" height="24" fill="#7c3aed"/><text x="252" y="352" text-anchor="middle" class="idx-l">115</text>
  <rect x="288" y="336" width="72" height="24" fill="#8b5cf6"/><text x="324" y="352" text-anchor="middle" class="idx-l">116</text>
  <rect x="360" y="336" width="72" height="24" fill="#a78bfa"/><text x="396" y="352" text-anchor="middle" class="idx-d">117</text>
  <rect x="432" y="336" width="72" height="24" fill="#c4b5fd"/><text x="468" y="352" text-anchor="middle" class="idx-d">118</text>
  <rect x="504" y="336" width="72" height="24" fill="#ddd6fe"/><text x="540" y="352" text-anchor="middle" class="idx-d">119</text>
  <!-- Row 15: 120..127 (Purple) -->
  <rect x="0" y="360" width="72" height="24" fill="#581c87"/><text x="36" y="376" text-anchor="middle" class="idx-l">120</text>
  <rect x="72" y="360" width="72" height="24" fill="#6b21a8"/><text x="108" y="376" text-anchor="middle" class="idx-l">121</text>
  <rect x="144" y="360" width="72" height="24" fill="#7e22ce"/><text x="180" y="376" text-anchor="middle" class="idx-l">122</text>
  <rect x="216" y="360" width="72" height="24" fill="#9333ea"/><text x="252" y="376" text-anchor="middle" class="idx-l">123</text>
  <rect x="288" y="360" width="72" height="24" fill="#a855f7"/><text x="324" y="376" text-anchor="middle" class="idx-d">124</text>
  <rect x="360" y="360" width="72" height="24" fill="#c084fc"/><text x="396" y="376" text-anchor="middle" class="idx-d">125</text>
  <rect x="432" y="360" width="72" height="24" fill="#d8b4fe"/><text x="468" y="376" text-anchor="middle" class="idx-d">126</text>
  <rect x="504" y="360" width="72" height="24" fill="#e9d5ff"/><text x="540" y="376" text-anchor="middle" class="idx-d">127</text>
  <!-- Row 16: 128..135 (Fuchsia) -->
  <rect x="0" y="384" width="72" height="24" fill="#701a75"/><text x="36" y="400" text-anchor="middle" class="idx-l">128</text>
  <rect x="72" y="384" width="72" height="24" fill="#86198f"/><text x="108" y="400" text-anchor="middle" class="idx-l">129</text>
  <rect x="144" y="384" width="72" height="24" fill="#a21caf"/><text x="180" y="400" text-anchor="middle" class="idx-l">130</text>
  <rect x="216" y="384" width="72" height="24" fill="#c026d3"/><text x="252" y="400" text-anchor="middle" class="idx-l">131</text>
  <rect x="288" y="384" width="72" height="24" fill="#d946ef"/><text x="324" y="400" text-anchor="middle" class="idx-d">132</text>
  <rect x="360" y="384" width="72" height="24" fill="#e879f9"/><text x="396" y="400" text-anchor="middle" class="idx-d">133</text>
  <rect x="432" y="384" width="72" height="24" fill="#f0abfc"/><text x="468" y="400" text-anchor="middle" class="idx-d">134</text>
  <rect x="504" y="384" width="72" height="24" fill="#f5d0fe"/><text x="540" y="400" text-anchor="middle" class="idx-d">135</text>
  <!-- Row 17: 136..143 (Pink) -->
  <rect x="0" y="408" width="72" height="24" fill="#831843"/><text x="36" y="424" text-anchor="middle" class="idx-l">136</text>
  <rect x="72" y="408" width="72" height="24" fill="#9d174d"/><text x="108" y="424" text-anchor="middle" class="idx-l">137</text>
  <rect x="144" y="408" width="72" height="24" fill="#be185d"/><text x="180" y="424" text-anchor="middle" class="idx-l">138</text>
  <rect x="216" y="408" width="72" height="24" fill="#db2777"/><text x="252" y="424" text-anchor="middle" class="idx-l">139</text>
  <rect x="288" y="408" width="72" height="24" fill="#ec4899"/><text x="324" y="424" text-anchor="middle" class="idx-d">140</text>
  <rect x="360" y="408" width="72" height="24" fill="#f472b6"/><text x="396" y="424" text-anchor="middle" class="idx-d">141</text>
  <rect x="432" y="408" width="72" height="24" fill="#f9a8d4"/><text x="468" y="424" text-anchor="middle" class="idx-d">142</text>
  <rect x="504" y="408" width="72" height="24" fill="#fbcfe8"/><text x="540" y="424" text-anchor="middle" class="idx-d">143</text>
  <!-- Row 18: 144..151 (Rose) -->
  <rect x="0" y="432" width="72" height="24" fill="#881337"/><text x="36" y="448" text-anchor="middle" class="idx-l">144</text>
  <rect x="72" y="432" width="72" height="24" fill="#9f1239"/><text x="108" y="448" text-anchor="middle" class="idx-l">145</text>
  <rect x="144" y="432" width="72" height="24" fill="#be123c"/><text x="180" y="448" text-anchor="middle" class="idx-l">146</text>
  <rect x="216" y="432" width="72" height="24" fill="#e11d48"/><text x="252" y="448" text-anchor="middle" class="idx-l">147</text>
  <rect x="288" y="432" width="72" height="24" fill="#f43f5e"/><text x="324" y="448" text-anchor="middle" class="idx-l">148</text>
  <rect x="360" y="432" width="72" height="24" fill="#fb7185"/><text x="396" y="448" text-anchor="middle" class="idx-d">149</text>
  <rect x="432" y="432" width="72" height="24" fill="#fda4af"/><text x="468" y="448" text-anchor="middle" class="idx-d">150</text>
  <rect x="504" y="432" width="72" height="24" fill="#fecdd3"/><text x="540" y="448" text-anchor="middle" class="idx-d">151</text>
  <!-- Row 19: 152..159 (Slate) -->
  <rect x="0" y="456" width="72" height="24" fill="#0f172a"/><text x="36" y="472" text-anchor="middle" class="idx-l">152</text>
  <rect x="72" y="456" width="72" height="24" fill="#1e293b"/><text x="108" y="472" text-anchor="middle" class="idx-l">153</text>
  <rect x="144" y="456" width="72" height="24" fill="#334155"/><text x="180" y="472" text-anchor="middle" class="idx-l">154</text>
  <rect x="216" y="456" width="72" height="24" fill="#475569"/><text x="252" y="472" text-anchor="middle" class="idx-l">155</text>
  <rect x="288" y="456" width="72" height="24" fill="#64748b"/><text x="324" y="472" text-anchor="middle" class="idx-l">156</text>
  <rect x="360" y="456" width="72" height="24" fill="#94a3b8"/><text x="396" y="472" text-anchor="middle" class="idx-d">157</text>
  <rect x="432" y="456" width="72" height="24" fill="#cbd5e1"/><text x="468" y="472" text-anchor="middle" class="idx-d">158</text>
  <rect x="504" y="456" width="72" height="24" fill="#e2e8f0"/><text x="540" y="472" text-anchor="middle" class="idx-d">159</text>
  <!-- Row 20: 160..167 (Neutral) -->
  <rect x="0" y="480" width="72" height="24" fill="#171717"/><text x="36" y="496" text-anchor="middle" class="idx-l">160</text>
  <rect x="72" y="480" width="72" height="24" fill="#262626"/><text x="108" y="496" text-anchor="middle" class="idx-l">161</text>
  <rect x="144" y="480" width="72" height="24" fill="#404040"/><text x="180" y="496" text-anchor="middle" class="idx-l">162</text>
  <rect x="216" y="480" width="72" height="24" fill="#525252"/><text x="252" y="496" text-anchor="middle" class="idx-l">163</text>
  <rect x="288" y="480" width="72" height="24" fill="#737373"/><text x="324" y="496" text-anchor="middle" class="idx-l">164</text>
  <rect x="360" y="480" width="72" height="24" fill="#a3a3a3"/><text x="396" y="496" text-anchor="middle" class="idx-d">165</text>
  <rect x="432" y="480" width="72" height="24" fill="#d4d4d4"/><text x="468" y="496" text-anchor="middle" class="idx-d">166</text>
  <rect x="504" y="480" width="72" height="24" fill="#e5e5e5"/><text x="540" y="496" text-anchor="middle" class="idx-d">167</text>
  <!-- Row 21: 168..175 (Stone) -->
  <rect x="0" y="504" width="72" height="24" fill="#1c1917"/><text x="36" y="520" text-anchor="middle" class="idx-l">168</text>
  <rect x="72" y="504" width="72" height="24" fill="#292524"/><text x="108" y="520" text-anchor="middle" class="idx-l">169</text>
  <rect x="144" y="504" width="72" height="24" fill="#44403c"/><text x="180" y="520" text-anchor="middle" class="idx-l">170</text>
  <rect x="216" y="504" width="72" height="24" fill="#57534e"/><text x="252" y="520" text-anchor="middle" class="idx-l">171</text>
  <rect x="288" y="504" width="72" height="24" fill="#78716c"/><text x="324" y="520" text-anchor="middle" class="idx-l">172</text>
  <rect x="360" y="504" width="72" height="24" fill="#a8a29e"/><text x="396" y="520" text-anchor="middle" class="idx-d">173</text>
  <rect x="432" y="504" width="72" height="24" fill="#d6d3d1"/><text x="468" y="520" text-anchor="middle" class="idx-d">174</text>
  <rect x="504" y="504" width="72" height="24" fill="#e7e5e4"/><text x="540" y="520" text-anchor="middle" class="idx-d">175</text>
  <!-- Row 22: 176..183 (Unallocated) -->
  <rect x="0" y="528" width="72" height="24" fill="#000000"/><text x="36" y="544" text-anchor="middle" class="idx-l">176</text>
  <rect x="72" y="528" width="72" height="24" fill="#000000"/><text x="108" y="544" text-anchor="middle" class="idx-l">177</text>
  <rect x="144" y="528" width="72" height="24" fill="#000000"/><text x="180" y="544" text-anchor="middle" class="idx-l">178</text>
  <rect x="216" y="528" width="72" height="24" fill="#000000"/><text x="252" y="544" text-anchor="middle" class="idx-l">179</text>
  <rect x="288" y="528" width="72" height="24" fill="#000000"/><text x="324" y="544" text-anchor="middle" class="idx-l">180</text>
  <rect x="360" y="528" width="72" height="24" fill="#000000"/><text x="396" y="544" text-anchor="middle" class="idx-l">181</text>
  <rect x="432" y="528" width="72" height="24" fill="#000000"/><text x="468" y="544" text-anchor="middle" class="idx-l">182</text>
  <rect x="504" y="528" width="72" height="24" fill="#000000"/><text x="540" y="544" text-anchor="middle" class="idx-l">183</text>
  <!-- Row 23: 184..191 (Unallocated) -->
  <rect x="0" y="552" width="72" height="24" fill="#000000"/><text x="36" y="568" text-anchor="middle" class="idx-l">184</text>
  <rect x="72" y="552" width="72" height="24" fill="#000000"/><text x="108" y="568" text-anchor="middle" class="idx-l">185</text>
  <rect x="144" y="552" width="72" height="24" fill="#000000"/><text x="180" y="568" text-anchor="middle" class="idx-l">186</text>
  <rect x="216" y="552" width="72" height="24" fill="#000000"/><text x="252" y="568" text-anchor="middle" class="idx-l">187</text>
  <rect x="288" y="552" width="72" height="24" fill="#000000"/><text x="324" y="568" text-anchor="middle" class="idx-l">188</text>
  <rect x="360" y="552" width="72" height="24" fill="#000000"/><text x="396" y="568" text-anchor="middle" class="idx-l">189</text>
  <rect x="432" y="552" width="72" height="24" fill="#000000"/><text x="468" y="568" text-anchor="middle" class="idx-l">190</text>
  <rect x="504" y="552" width="72" height="24" fill="#000000"/><text x="540" y="568" text-anchor="middle" class="idx-l">191</text>
  <!-- Row 24: 192..199 (Unallocated) -->
  <rect x="0" y="576" width="72" height="24" fill="#000000"/><text x="36" y="592" text-anchor="middle" class="idx-l">192</text>
  <rect x="72" y="576" width="72" height="24" fill="#000000"/><text x="108" y="592" text-anchor="middle" class="idx-l">193</text>
  <rect x="144" y="576" width="72" height="24" fill="#000000"/><text x="180" y="592" text-anchor="middle" class="idx-l">194</text>
  <rect x="216" y="576" width="72" height="24" fill="#000000"/><text x="252" y="592" text-anchor="middle" class="idx-l">195</text>
  <rect x="288" y="576" width="72" height="24" fill="#000000"/><text x="324" y="592" text-anchor="middle" class="idx-l">196</text>
  <rect x="360" y="576" width="72" height="24" fill="#000000"/><text x="396" y="592" text-anchor="middle" class="idx-l">197</text>
  <rect x="432" y="576" width="72" height="24" fill="#000000"/><text x="468" y="592" text-anchor="middle" class="idx-l">198</text>
  <rect x="504" y="576" width="72" height="24" fill="#000000"/><text x="540" y="592" text-anchor="middle" class="idx-l">199</text>
  <!-- Row 25: 200..207 (Unallocated) -->
  <rect x="0" y="600" width="72" height="24" fill="#000000"/><text x="36" y="616" text-anchor="middle" class="idx-l">200</text>
  <rect x="72" y="600" width="72" height="24" fill="#000000"/><text x="108" y="616" text-anchor="middle" class="idx-l">201</text>
  <rect x="144" y="600" width="72" height="24" fill="#000000"/><text x="180" y="616" text-anchor="middle" class="idx-l">202</text>
  <rect x="216" y="600" width="72" height="24" fill="#000000"/><text x="252" y="616" text-anchor="middle" class="idx-l">203</text>
  <rect x="288" y="600" width="72" height="24" fill="#000000"/><text x="324" y="616" text-anchor="middle" class="idx-l">204</text>
  <rect x="360" y="600" width="72" height="24" fill="#000000"/><text x="396" y="616" text-anchor="middle" class="idx-l">205</text>
  <rect x="432" y="600" width="72" height="24" fill="#000000"/><text x="468" y="616" text-anchor="middle" class="idx-l">206</text>
  <rect x="504" y="600" width="72" height="24" fill="#000000"/><text x="540" y="616" text-anchor="middle" class="idx-l">207</text>
  <!-- Row 26: 208..215 (Unallocated) -->
  <rect x="0" y="624" width="72" height="24" fill="#000000"/><text x="36" y="640" text-anchor="middle" class="idx-l">208</text>
  <rect x="72" y="624" width="72" height="24" fill="#000000"/><text x="108" y="640" text-anchor="middle" class="idx-l">209</text>
  <rect x="144" y="624" width="72" height="24" fill="#000000"/><text x="180" y="640" text-anchor="middle" class="idx-l">210</text>
  <rect x="216" y="624" width="72" height="24" fill="#000000"/><text x="252" y="640" text-anchor="middle" class="idx-l">211</text>
  <rect x="288" y="624" width="72" height="24" fill="#000000"/><text x="324" y="640" text-anchor="middle" class="idx-l">212</text>
  <rect x="360" y="624" width="72" height="24" fill="#000000"/><text x="396" y="640" text-anchor="middle" class="idx-l">213</text>
  <rect x="432" y="624" width="72" height="24" fill="#000000"/><text x="468" y="640" text-anchor="middle" class="idx-l">214</text>
  <rect x="504" y="624" width="72" height="24" fill="#000000"/><text x="540" y="640" text-anchor="middle" class="idx-l">215</text>
  <!-- Row 27: 216..223 (Unallocated) -->
  <rect x="0" y="648" width="72" height="24" fill="#000000"/><text x="36" y="664" text-anchor="middle" class="idx-l">216</text>
  <rect x="72" y="648" width="72" height="24" fill="#000000"/><text x="108" y="664" text-anchor="middle" class="idx-l">217</text>
  <rect x="144" y="648" width="72" height="24" fill="#000000"/><text x="180" y="664" text-anchor="middle" class="idx-l">218</text>
  <rect x="216" y="648" width="72" height="24" fill="#000000"/><text x="252" y="664" text-anchor="middle" class="idx-l">219</text>
  <rect x="288" y="648" width="72" height="24" fill="#000000"/><text x="324" y="664" text-anchor="middle" class="idx-l">220</text>
  <rect x="360" y="648" width="72" height="24" fill="#000000"/><text x="396" y="664" text-anchor="middle" class="idx-l">221</text>
  <rect x="432" y="648" width="72" height="24" fill="#000000"/><text x="468" y="664" text-anchor="middle" class="idx-l">222</text>
  <rect x="504" y="648" width="72" height="24" fill="#000000"/><text x="540" y="664" text-anchor="middle" class="idx-l">223</text>
  <!-- Row 28: 224..231 (Unallocated) -->
  <rect x="0" y="672" width="72" height="24" fill="#000000"/><text x="36" y="688" text-anchor="middle" class="idx-l">224</text>
  <rect x="72" y="672" width="72" height="24" fill="#000000"/><text x="108" y="688" text-anchor="middle" class="idx-l">225</text>
  <rect x="144" y="672" width="72" height="24" fill="#000000"/><text x="180" y="688" text-anchor="middle" class="idx-l">226</text>
  <rect x="216" y="672" width="72" height="24" fill="#000000"/><text x="252" y="688" text-anchor="middle" class="idx-l">227</text>
  <rect x="288" y="672" width="72" height="24" fill="#000000"/><text x="324" y="688" text-anchor="middle" class="idx-l">228</text>
  <rect x="360" y="672" width="72" height="24" fill="#000000"/><text x="396" y="688" text-anchor="middle" class="idx-l">229</text>
  <rect x="432" y="672" width="72" height="24" fill="#000000"/><text x="468" y="688" text-anchor="middle" class="idx-l">230</text>
  <rect x="504" y="672" width="72" height="24" fill="#000000"/><text x="540" y="688" text-anchor="middle" class="idx-l">231</text>
  <!-- Row 29: 232..239 (Unallocated) -->
  <rect x="0" y="696" width="72" height="24" fill="#000000"/><text x="36" y="712" text-anchor="middle" class="idx-l">232</text>
  <rect x="72" y="696" width="72" height="24" fill="#000000"/><text x="108" y="712" text-anchor="middle" class="idx-l">233</text>
  <rect x="144" y="696" width="72" height="24" fill="#000000"/><text x="180" y="712" text-anchor="middle" class="idx-l">234</text>
  <rect x="216" y="696" width="72" height="24" fill="#000000"/><text x="252" y="712" text-anchor="middle" class="idx-l">235</text>
  <rect x="288" y="696" width="72" height="24" fill="#000000"/><text x="324" y="712" text-anchor="middle" class="idx-l">236</text>
  <rect x="360" y="696" width="72" height="24" fill="#000000"/><text x="396" y="712" text-anchor="middle" class="idx-l">237</text>
  <rect x="432" y="696" width="72" height="24" fill="#000000"/><text x="468" y="712" text-anchor="middle" class="idx-l">238</text>
  <rect x="504" y="696" width="72" height="24" fill="#000000"/><text x="540" y="712" text-anchor="middle" class="idx-l">239</text>
  <!-- Row 30: 240..247 (Unallocated) -->
  <rect x="0" y="720" width="72" height="24" fill="#000000"/><text x="36" y="736" text-anchor="middle" class="idx-l">240</text>
  <rect x="72" y="720" width="72" height="24" fill="#000000"/><text x="108" y="736" text-anchor="middle" class="idx-l">241</text>
  <rect x="144" y="720" width="72" height="24" fill="#000000"/><text x="180" y="736" text-anchor="middle" class="idx-l">242</text>
  <rect x="216" y="720" width="72" height="24" fill="#000000"/><text x="252" y="736" text-anchor="middle" class="idx-l">243</text>
  <rect x="288" y="720" width="72" height="24" fill="#000000"/><text x="324" y="736" text-anchor="middle" class="idx-l">244</text>
  <rect x="360" y="720" width="72" height="24" fill="#000000"/><text x="396" y="736" text-anchor="middle" class="idx-l">245</text>
  <rect x="432" y="720" width="72" height="24" fill="#000000"/><text x="468" y="736" text-anchor="middle" class="idx-l">246</text>
  <rect x="504" y="720" width="72" height="24" fill="#000000"/><text x="540" y="736" text-anchor="middle" class="idx-l">247</text>
  <!-- Row 31: 248..255 (Primaries + BG) -->
  <rect x="0" y="744" width="72" height="24" fill="#ff0000"/><text x="36" y="760" text-anchor="middle" class="idx-l">248</text>
  <rect x="72" y="744" width="72" height="24" fill="#00ff00"/><text x="108" y="760" text-anchor="middle" class="idx-d">249</text>
  <rect x="144" y="744" width="72" height="24" fill="#0000ff"/><text x="180" y="760" text-anchor="middle" class="idx-l">250</text>
  <rect x="216" y="744" width="72" height="24" fill="#ffff00"/><text x="252" y="760" text-anchor="middle" class="idx-d">251</text>
  <rect x="288" y="744" width="72" height="24" fill="#00ffff"/><text x="324" y="760" text-anchor="middle" class="idx-d">252</text>
  <rect x="360" y="744" width="72" height="24" fill="#ff00ff"/><text x="396" y="760" text-anchor="middle" class="idx-l">253</text>
  <rect x="432" y="744" width="72" height="24" fill="#ffffff"/><text x="468" y="760" text-anchor="middle" class="idx-d">254</text>
  <rect x="504" y="744" width="72" height="24" fill="#000000"/><text x="540" y="760" text-anchor="middle" class="idx-l">255</text>
</svg>
